<svg width="313" height="359" viewBox="0 0 313 359" fill="none" xmlns="http://www.w3.org/2000/svg">
<path d="M245 26L221.5 151.5L302.5 186.5M302.5 186.5V26M302.5 186.5V340.5M95 186.5L22 151.5L10 26M95 186.5V26M95 186.5V340.5M118 108.5L193.5 26V340.5L141 306.5L118 108.5Z" stroke="black" stroke-width="20"/>
<path d="M221.5 151L221.009 150.907L220.934 151.303L221.304 151.46L221.5 151ZM117.5 110L117.131 109.662L116.976 109.832L117.004 110.06L117.5 110ZM141 305.5L140.504 305.56L140.531 305.79L140.725 305.918L141 305.5ZM193.5 340L193.225 340.418L194 340.927V340H193.5ZM193.5 27H194V25.7136L193.131 26.6623L193.5 27ZM10.4974 33.4495L10.447 32.9521L9.45207 33.053L9.50255 33.5505L10.4974 33.4495ZM22 151.75L21.5026 151.8L21.5312 152.083L21.7888 152.203L22 151.75ZM96 33.5V33H95V33.5H96ZM95 332.5V333H96V332.5H95ZM243.509 31.9071L221.009 150.907L221.991 151.093L244.491 32.0929L243.509 31.9071ZM221.304 151.46L301.304 185.46L301.696 184.54L221.696 150.54L221.304 151.46ZM301 185V335.5H302V185H301ZM117.004 110.06L140.504 305.56L141.496 305.44L117.996 109.94L117.004 110.06ZM140.725 305.918L193.225 340.418L193.775 339.582L141.275 305.082L140.725 305.918ZM194 340V27H193V340H194ZM193.131 26.6623L117.131 109.662L117.869 110.338L193.869 27.3377L193.131 26.6623ZM9.50255 33.5505L21.5026 151.8L22.4974 151.7L10.4974 33.4495L9.50255 33.5505ZM21.7888 152.203L95.2888 186.453L95.7112 185.547L22.2112 151.297L21.7888 152.203ZM95 33.5V186H96V33.5H95ZM95 186V332.5H96V186H95ZM302 185V32H301V185H302Z" fill="white" fill-opacity="0.38"/>
</svg>
